<svg xmlns="http://www.w3.org/2000/svg" viewBox="0 0 54.9 46.91"><title>bm</title><g><g id="WEB"><path class="bm" d="M54.87,20c-.14-6.88-6-9.21-11-9.11a13.2,13.2,0,0,0-9.84,4c-2.1-3.18-6.17-4.29-9.63-4.23-4.26.08-6.84,1.21-9,3.1V0H0V46.91H15.55l0-2.59c1.51,1.35,3.94,2.6,8.32,2.6H24a12.35,12.35,0,0,0,8.82-3.68,8.35,8.35,0,0,0,2.62-5.84c0-.62,0-1.28,0-2,0-1.16,0-4.88,0-8.42,0-1.37,0-2.68,0-3.88,0-.55,0-1.07,0-1.52a2.16,2.16,0,0,1,1.82-1.11,1.64,1.64,0,0,1,1.7,1.57l0,14.72H54.86v-1C54.87,35.68,54.95,23.89,54.87,20ZM16.07,21.83a1.71,1.71,0,0,1,3.41,0l0,13.87a1.5,1.5,0,0,1-.45,1.06,1.79,1.79,0,0,1-1.3.51,1.64,1.64,0,0,1-1.7-1.57ZM2,2H13.37v8.85H2ZM31.35,41.83A10.34,10.34,0,0,1,24,44.91H23.9c-5.65,0-7.29-2.19-8.5-3.83l-1.78-2.39,0,6.21H2V36.79H14.27a3.79,3.79,0,0,0,6.22,1.38,3.52,3.52,0,0,0,.84-1.38H33.4c0,.21,0,.42,0,.62A6.39,6.39,0,0,1,31.35,41.83Z" ></path></g></g></svg>