<svg xmlns="http://www.w3.org/2000/svg" viewBox="0 0 58.43 58.43"><title>bc</title><g ><g id="WEB"><path class="bcc" d="M46,52.15c-8.16,0-14.8-7-14.8-15.62a16.27,16.27,0,0,1,2-7.79l.88-1.61.88,1.61A12.72,12.72,0,0,0,46,35.53a11.92,11.92,0,0,0,3.79-.62l1.32-.44V51.19l-.68.23A13.93,13.93,0,0,1,46,52.15ZM34.19,31.3a14.32,14.32,0,0,0-1,5.23C33.2,44,38.94,50.15,46,50.15a11.84,11.84,0,0,0,3.11-.42V37.17a13.84,13.84,0,0,1-3.11.35A14.59,14.59,0,0,1,34.19,31.3Z" ></path><path class="bcc" d="M34.06,31.3l-.88-1.61a16.27,16.27,0,0,1-2-7.79c0-8.61,6.64-15.62,14.8-15.62A13.94,13.94,0,0,1,50.42,7l.68.23V24l-1.32-.44A11.94,11.94,0,0,0,46,22.91,12.72,12.72,0,0,0,34.94,29.7ZM46,8.29c-7.06,0-12.8,6.11-12.8,13.62a14.32,14.32,0,0,0,1,5.23A14.59,14.59,0,0,1,46,20.91a13.8,13.8,0,0,1,3.11.36V8.7A11.88,11.88,0,0,0,46,8.29Z" ></path><path class="bcc" d="M12.44,52.15A13.93,13.93,0,0,1,8,51.42l-.68-.23V34.46l1.32.44a11.92,11.92,0,0,0,3.79.62A12.72,12.72,0,0,0,23.5,28.74l.88-1.61.88,1.61a16.27,16.27,0,0,1,2,7.79C27.23,45.14,20.59,52.15,12.44,52.15ZM9.33,49.73a11.84,11.84,0,0,0,3.11.42c7.06,0,12.8-6.11,12.8-13.62a14.32,14.32,0,0,0-1-5.23,14.59,14.59,0,0,1-11.81,6.23,13.84,13.84,0,0,1-3.11-.35Z" ></path><path class="bcc" d="M24.37,31.3,23.5,29.7a12.72,12.72,0,0,0-11.06-6.79,11.94,11.94,0,0,0-3.79.62L7.33,24V7.24L8,7a13.94,13.94,0,0,1,4.42-.73c8.16,0,14.8,7,14.8,15.62a16.27,16.27,0,0,1-2,7.79ZM12.44,20.91a14.59,14.59,0,0,1,11.81,6.23,14.32,14.32,0,0,0,1-5.23c0-7.51-5.74-13.62-12.8-13.62a11.88,11.88,0,0,0-3.11.42V21.26A13.8,13.8,0,0,1,12.44,20.91Z" ></path><path class="bcc" d="M51.43,58.43H7a7,7,0,0,1-7-7V7A7,7,0,0,1,7,0H51.43a7,7,0,0,1,7,7V51.43A7,7,0,0,1,51.43,58.43ZM7,2A5,5,0,0,0,2,7V51.43a5,5,0,0,0,5,5H51.43a5,5,0,0,0,5-5V7a5,5,0,0,0-5-5Z" ></path></g></g></svg>