<svg xmlns="http://www.w3.org/2000/svg" viewBox="0 0 86.43 59.78" style="height: 45px;"><title>red</title><g><g id="WEB"><polygon class="redsa" points="37.51 55.13 12.27 29.89 37.51 4.66 45.73 12.88 44.31 14.29 37.51 7.49 15.1 29.89 37.51 52.3 44.31 45.49 45.73 46.91 37.51 55.13"></polygon><polygon class="redsa" points="21.26 51.16 0 29.89 21.26 8.63 28.35 15.72 26.94 17.13 21.26 11.46 2.83 29.89 21.26 48.33 26.69 42.9 28.11 44.31 21.26 51.16"></polygon><path class="redsa" d="M56.54,0,26.64,29.89,56.54,59.78,86.43,29.89ZM45.85,30.36H43.59a.39.39,0,0,0-.39.39v8.08H38.47V30.75a5.13,5.13,0,0,1,5.12-5.12h2.25Zm14.44,2.49H53V31.06h1.83a1.48,1.48,0,0,0-1-.68,1.89,1.89,0,1,0,1,3.39l2.87,3.77a6.61,6.61,0,0,1-4,1.36l-.58,0a6.63,6.63,0,1,1,7.18-6ZM74.6,32.7A6.63,6.63,0,0,1,68,38.9h-.44a6.62,6.62,0,0,1,0-13.22l1.48,0v4.74h-1a1.89,1.89,0,1,0,1.76,2.07V20.88H74.6V32.55C74.6,32.6,74.6,32.65,74.6,32.7Z"></path></g></g></svg>