<svg xmlns="http://www.w3.org/2000/svg" viewBox="0 0 55.08 58.27"><title>bandec</title><g><g id="WEB"><path class="bandec" d="M48.44,9.09A26.76,26.76,0,0,0,28.35,0a27.27,27.27,0,0,0-2.8.15L24.48.26l0,1.07c0,1.31,0,2.5-.05,3.61a26.61,26.61,0,0,0-5,.88,26.74,26.74,0,0,0,7.32,52.46,27,27,0,0,0,2.8-.15L30.6,58l0-1.07c0-1.31,0-2.49.05-3.6a26.61,26.61,0,0,0,5-.89A26.74,26.74,0,0,0,48.44,9.09ZM26.8,7.25A24.82,24.82,0,0,1,47.72,19.06a1.19,1.19,0,0,1,.14.9,1.28,1.28,0,0,1-.61.8,1.37,1.37,0,0,1-1.76-.51,21.41,21.41,0,0,0-16.13-8.37,20.2,20.2,0,0,0-2.61.1C26.77,10.53,26.78,9,26.8,7.25ZM8.46,47.59A24.14,24.14,0,0,1,2.62,28.3,24.41,24.41,0,0,1,20.06,8.14a24.26,24.26,0,0,1,4.33-.78c0,1.85,0,3.48-.05,5a14.62,14.62,0,0,0-7.61,4.06C12.6,20.93,12,26.56,15.1,30.76c2.5,3.35,7.45,5.54,13.26,3.5,0,4,0,6.79,0,9.6A17.37,17.37,0,0,1,25.8,44a19,19,0,0,1-14.32-7.46,3.77,3.77,0,0,0-4.94-1,3.66,3.66,0,0,0-1.66,2.28,3.58,3.58,0,0,0,.43,2.73,27.24,27.24,0,0,0,22.95,13c0,.75,0,1.53,0,2.38A24.41,24.41,0,0,1,8.46,47.59ZM26,26.91c5.31-2.58,9.85-.84,12,2,1.92,2.57,2.54,6.88-1.46,11.25a12,12,0,0,1-5.82,3.21c0-3.08,0-6.25,0-11V30.52L29,31.36c-5.31,2.58-9.85.84-12-2-1.92-2.57-2.54-6.88,1.46-11.25a12,12,0,0,1,5.82-3.21c0,3.08,0,6.25,0,11v1.93ZM28.28,51A24.81,24.81,0,0,1,7.36,39.21a1.18,1.18,0,0,1-.14-.9,1.28,1.28,0,0,1,.61-.8,1.05,1.05,0,0,1,.56-.16,1.63,1.63,0,0,1,1.2.67,21.41,21.41,0,0,0,16.13,8.37,20.15,20.15,0,0,0,2.61-.09C28.32,47.74,28.3,49.26,28.28,51ZM52.46,30A24.07,24.07,0,0,1,30.7,50.92c0-1.85,0-3.47.05-5a14.6,14.6,0,0,0,7.61-4.07c4.12-4.5,4.76-10.13,1.62-14.33C37.48,24.16,32.53,22,26.72,24c0-4,0-6.79,0-9.6a17.48,17.48,0,0,1,2.55-.11A19,19,0,0,1,43.6,21.77a3.77,3.77,0,0,0,4.94,1,3.66,3.66,0,0,0,1.66-2.28,3.58,3.58,0,0,0-.43-2.73,27.23,27.23,0,0,0-22.95-13c0-.76,0-1.54,0-2.39a24.4,24.4,0,0,1,19.76,8.22A24.14,24.14,0,0,1,52.46,30Z"></path></g></g></svg>